<?xml version="1.0" encoding="utf-8"?>
<!-- Generator: Adobe Illustrator 25.3.1, SVG Export Plug-In . SVG Version: 6.00 Build 0)  -->
<svg version="1.1" id="Ebene_1" xmlns="http://www.w3.org/2000/svg" xmlns:xlink="http://www.w3.org/1999/xlink" x="0px" y="0px"
	 viewBox="0 0 1081 1464" style="enable-background:new 0 0 1081 1464;" xml:space="preserve">
<style type="text/css">
	.st0{fill:#FFFFFF;stroke:#000000;stroke-miterlimit:10;}
	.st1{fill:none;stroke:#000000;stroke-miterlimit:10;}
	.st2{font-family:'Helvetica-Bold';}
	.st3{font-size:10.4651px;}
	.st4{clip-path:url(#SVGID_2_);}
	.st5{font-family:'Helvetica';}
	.st6{clip-path:url(#SVGID_4_);}
	.st7{clip-path:url(#SVGID_6_);}
	.st8{clip-path:url(#SVGID_8_);}
	.st9{clip-path:url(#SVGID_10_);}
	.st10{clip-path:url(#SVGID_12_);}
	.st11{stroke:#000000;stroke-miterlimit:10;}
	.st12{clip-path:url(#SVGID_14_);}
	.st13{clip-path:url(#SVGID_16_);}
	.st14{clip-path:url(#SVGID_18_);}
	.st15{clip-path:url(#SVGID_20_);}
	.st16{clip-path:url(#SVGID_22_);}
	.st17{clip-path:url(#SVGID_24_);}
	.st18{clip-path:url(#SVGID_26_);}
	.st19{clip-path:url(#SVGID_28_);}
	.st20{clip-path:url(#SVGID_30_);}
	.st21{clip-path:url(#SVGID_32_);}
	.st22{clip-path:url(#SVGID_34_);}
	.st23{clip-path:url(#SVGID_36_);}
	.st24{clip-path:url(#SVGID_38_);}
	.st25{clip-path:url(#SVGID_40_);}
	.st26{clip-path:url(#SVGID_42_);}
	.st27{clip-path:url(#SVGID_44_);}
	.st28{font-size:9.593px;}
</style>
<g>
	<path pointer-events="all" class="st0" d="M115.4,116.4V93.7h139.5v22.7"/>
	<path pointer-events="none" class="st1" d="M115.4,116.4v308.7h139.5V116.4"/>
	<path pointer-events="none" class="st1" d="M115.4,116.4h139.5"/>
	<g pointer-events="none">
		<text transform="matrix(1 0 0 1 164.3794 108.9912)" class="st2 st3">Screens</text>
	</g>
	<g>
		<defs>
			<rect id="SVGID_1_" x="118.9" y="120.8" width="132.6" height="186.6"/>
		</defs>
		<clipPath id="SVGID_2_">
			<use xlink:href="#SVGID_1_"  style="overflow:visible;"/>
		</clipPath>
		<g pointer-events="none" class="st4">
			<text transform="matrix(1 0 0 1 120.2075 131.6655)" class="st5 st3">width</text>
			<text transform="matrix(1 0 0 1 120.2075 143.875)" class="st5 st3">height</text>
			<text transform="matrix(1 0 0 1 120.2075 156.0845)" class="st5 st3">motivationtext </text>
			<text transform="matrix(1 0 0 1 120.2075 180.5029)" class="st5 st3">visualize</text>
			<text transform="matrix(1 0 0 1 120.2075 192.7124)" class="st5 st3">startButton</text>
			<text transform="matrix(1 0 0 1 120.2075 204.9219)" class="st5 st3">replayButton</text>
			<text transform="matrix(1 0 0 1 120.2075 217.1309)" class="st5 st3">scrollDownButton</text>
			<text transform="matrix(1 0 0 1 120.2075 229.3403)" class="st5 st3">scrollUpButton</text>
			<text transform="matrix(1 0 0 1 120.2075 241.5498)" class="st5 st3">tutorialButton</text>
			<text transform="matrix(1 0 0 1 120.2075 253.7588)" class="st5 st3">exitButton</text>
			<text transform="matrix(1 0 0 1 120.2075 265.9683)" class="st5 st3">homeButton</text>
			<text transform="matrix(1 0 0 1 120.2075 278.1777)" class="st5 st3">backToGameButton</text>
		</g>
	</g>
	<path pointer-events="none" class="st1" d="M115.4,306.5h139.5"/>
	<g>
		<defs>
			<rect id="SVGID_3_" x="118.9" y="314.4" width="132.6" height="115.1"/>
		</defs>
		<clipPath id="SVGID_4_">
			<use xlink:href="#SVGID_3_"  style="overflow:visible;"/>
		</clipPath>
		<g pointer-events="none" class="st6">
			<text transform="matrix(1 0 0 1 120.2075 325.271)" class="st5 st3">Screens(width,height)</text>
			<text transform="matrix(1 0 0 1 120.2075 337.48)" class="st5 st3">setup()</text>
			<text transform="matrix(1 0 0 1 120.2075 349.6895)" class="st5 st3">startScreen(helper)</text>
			<text transform="matrix(1 0 0 1 120.2075 361.8989)" class="st5 st3">tutorial(helper)</text>
			<text transform="matrix(1 0 0 1 120.2075 374.1084)" class="st5 st3">gameScreen(helper)</text>
			<text transform="matrix(1 0 0 1 120.2075 386.3174)" class="st5 st3">endScreen(helper)</text>
			<text transform="matrix(1 0 0 1 120.2075 398.5269)" class="st5 st3">exitPopUp(helper)</text>
			<text transform="matrix(1 0 0 1 120.2075 410.7363)" class="st5 st3">displayTipps()</text>
		</g>
	</g>
	<path pointer-events="none" class="st0" d="M80.5,569.9v-22.7h209.3v22.7"/>
	<path pointer-events="none" class="st1" d="M80.5,569.9v186.6h209.3V569.9"/>
	<path pointer-events="none" class="st1" d="M80.5,569.9h209.3"/>
	<g pointer-events="none">
		<text transform="matrix(1 0 0 1 167.8901 562.481)" class="st2 st3">Button</text>
	</g>
	<g>
		<defs>
			<rect id="SVGID_5_" x="84" y="574.3" width="202.3" height="90.7"/>
		</defs>
		<clipPath id="SVGID_6_">
			<use xlink:href="#SVGID_5_"  style="overflow:visible;"/>
		</clipPath>
		<g pointer-events="none" class="st7">
			<text transform="matrix(1 0 0 1 85.3237 585.1553)" class="st5 st3">x</text>
			<text transform="matrix(1 0 0 1 85.3237 597.3647)" class="st5 st3">y</text>
			<text transform="matrix(1 0 0 1 85.3237 609.5737)" class="st5 st3">color</text>
			<text transform="matrix(1 0 0 1 85.3237 621.7832)" class="st5 st3">lable</text>
			<text transform="matrix(1 0 0 1 85.3237 633.9927)" class="st5 st3">interactioncolor</text>
			<text transform="matrix(1 0 0 1 85.3237 646.2021)" class="st5 st3">type</text>
		</g>
	</g>
	<path pointer-events="none" class="st1" d="M80.5,664.1h209.3"/>
	<g>
		<defs>
			<rect id="SVGID_7_" x="84" y="671.9" width="202.3" height="89"/>
		</defs>
		<clipPath id="SVGID_8_">
			<use xlink:href="#SVGID_7_"  style="overflow:visible;"/>
		</clipPath>
		<g pointer-events="none" class="st8">
			<text transform="matrix(1 0 0 1 85.3237 682.8301)" class="st5 st3">Button(x,y,color,lable,interactioncolor,type)</text>
			<text transform="matrix(1 0 0 1 85.3237 695.0391)" class="st5 st3">default()</text>
			<text transform="matrix(1 0 0 1 85.3237 707.249)" class="st5 st3">exit()</text>
			<text transform="matrix(1 0 0 1 85.3237 719.458)" class="st5 st3">help()</text>
			<text transform="matrix(1 0 0 1 85.3237 731.667)" class="st5 st3">scroll()</text>
			<text transform="matrix(1 0 0 1 85.3237 743.877)" class="st5 st3">interactionarea()</text>
		</g>
	</g>
	<path pointer-events="none" class="st0" d="M359.6,116.4V93.7H534v22.7"/>
	<path pointer-events="none" class="st1" d="M359.6,116.4v395.9H534V116.4"/>
	<path pointer-events="none" class="st1" d="M359.6,116.4H534"/>
	<g pointer-events="none">
		<text transform="matrix(1 0 0 1 424.0688 108.9912)" class="st2 st3">Visualize</text>
	</g>
	<g>
		<defs>
			<rect id="SVGID_9_" x="363.1" y="120.8" width="167.4" height="239"/>
		</defs>
		<clipPath id="SVGID_10_">
			<use xlink:href="#SVGID_9_"  style="overflow:visible;"/>
		</clipPath>
		<g pointer-events="none" class="st9">
			<text transform="matrix(1 0 0 1 364.394 131.6655)" class="st5 st3">x</text>
			<text transform="matrix(1 0 0 1 364.394 143.875)" class="st5 st3">y</text>
			<text transform="matrix(1 0 0 1 364.394 168.2935)" class="st5 st3">keyAction</text>
			<text transform="matrix(1 0 0 1 364.394 180.5029)" class="st5 st3">interactionDict</text>
			<text transform="matrix(1 0 0 1 364.394 192.7124)" class="st5 st3">mousePositionColor</text>
			<text transform="matrix(1 0 0 1 364.394 204.9219)" class="st5 st3">interactionKey</text>
			<text transform="matrix(1 0 0 1 364.394 217.1309)" class="st5 st3">parameter</text>
			<text transform="matrix(1 0 0 1 364.394 229.3403)" class="st5 st3">fish</text>
			<text transform="matrix(1 0 0 1 364.394 241.5498)" class="st5 st3">fishArray</text>
			<text transform="matrix(1 0 0 1 364.394 253.7588)" class="st5 st3">coral</text>
			<text transform="matrix(1 0 0 1 364.394 265.9683)" class="st5 st3">coralArray</text>
			<text transform="matrix(1 0 0 1 364.394 278.1777)" class="st5 st3">plastic</text>
			<text transform="matrix(1 0 0 1 364.394 290.3872)" class="st5 st3">plasticTeppich</text>
			<text transform="matrix(1 0 0 1 364.394 302.5962)" class="st5 st3">bycatch</text>
			<text transform="matrix(1 0 0 1 364.394 314.8057)" class="st5 st3">bycatchArray</text>
			<text transform="matrix(1 0 0 1 364.394 327.0151)" class="st5 st3">hover</text>
			<text transform="matrix(1 0 0 1 364.394 339.2246)" class="st5 st3">click</text>
		</g>
	</g>
	<path pointer-events="none" class="st1" d="M359.6,358.8H534"/>
	<g>
		<defs>
			<rect id="SVGID_11_" x="363.1" y="366.7" width="167.4" height="150"/>
		</defs>
		<clipPath id="SVGID_12_">
			<use xlink:href="#SVGID_11_"  style="overflow:visible;"/>
		</clipPath>
		<g pointer-events="none" class="st10">
			<text transform="matrix(1 0 0 1 364.394 377.5967)" class="st5 st3">Visualize(x,y)</text>
			<text transform="matrix(1 0 0 1 364.394 389.8057)" class="st5 st3">displayInteractionArea()</text>
			<text transform="matrix(1 0 0 1 364.394 402.0151)" class="st5 st3">colorCheck()</text>
			<text transform="matrix(1 0 0 1 364.394 414.2246)" class="st5 st3">interactionDictionary</text>
			<text transform="matrix(1 0 0 1 364.394 426.4341)" class="st5 st3">compareArrays(array1,array2)</text>
			<text transform="matrix(1 0 0 1 364.394 438.6431)" class="st5 st3">checkKey()</text>
			<text transform="matrix(1 0 0 1 364.394 450.8525)" class="st5 st3">doForKey(helper)</text>
			<text transform="matrix(1 0 0 1 364.394 463.062)" class="st5 st3">calculateEntities()</text>
			<text transform="matrix(1 0 0 1 364.394 475.2715)" class="st5 st3">displayVisuals(helper)</text>
			<text transform="matrix(1 0 0 1 364.394 487.4805)" class="st5 st3">moveCube()</text>
			<text transform="matrix(1 0 0 1 364.394 499.6899)" class="st5 st3">moveCubeBack()</text>
		</g>
	</g>
	<path pointer-events="none" class="st1" d="M438.1,583l3-48.1"/>
	<path pointer-events="none" class="st11" d="M442.4,513.2l5.7,11.3l-7.1,10.5l-5.7-11.3L442.4,513.2z"/>
	<path pointer-events="none" class="st0" d="M342.2,604.8v-22.7h209.3v22.7"/>
	<path pointer-events="none" class="st1" d="M342.2,604.8v204.1h209.3V604.8"/>
	<path pointer-events="none" class="st1" d="M342.2,604.8h209.3"/>
	<g pointer-events="none">
		<text transform="matrix(1 0 0 1 420.4946 597.3647)" class="st2 st3">KeyAction</text>
	</g>
	<g>
		<defs>
			<rect id="SVGID_13_" x="345.6" y="609.1" width="202.3" height="108.1"/>
		</defs>
		<clipPath id="SVGID_14_">
			<use xlink:href="#SVGID_13_"  style="overflow:visible;"/>
		</clipPath>
		<g pointer-events="none" class="st12">
			<text transform="matrix(1 0 0 1 346.9521 620.0391)" class="st5 st3">x</text>
			<text transform="matrix(1 0 0 1 346.9521 632.2485)" class="st5 st3">y</text>
			<text transform="matrix(1 0 0 1 346.9521 644.458)" class="st5 st3">interactedObject</text>
			<text transform="matrix(1 0 0 1 346.9521 656.667)" class="st5 st3">shownParameterScreen</text>
			<text transform="matrix(1 0 0 1 346.9521 681.0859)" class="st5 st3">parameterNetwork</text>
			<text transform="matrix(1 0 0 1 346.9521 693.2949)" class="st5 st3">parameterBox</text>
		</g>
	</g>
	<path pointer-events="none" class="st1" d="M342.2,716.4h209.3"/>
	<g>
		<defs>
			<rect id="SVGID_15_" x="345.6" y="724.3" width="202.3" height="89"/>
		</defs>
		<clipPath id="SVGID_16_">
			<use xlink:href="#SVGID_15_"  style="overflow:visible;"/>
		</clipPath>
		<g pointer-events="none" class="st13">
			<text transform="matrix(1 0 0 1 346.9521 735.1553)" class="st5 st3">KeyAction(x,y,visualize)</text>
			<text transform="matrix(1 0 0 1 346.9521 747.3652)" class="st5 st3">boat(helper)</text>
			<text transform="matrix(1 0 0 1 346.9521 759.5742)" class="st5 st3">nets(helper)</text>
			<text transform="matrix(1 0 0 1 346.9521 771.7832)" class="st5 st3">port(helper)</text>
			<text transform="matrix(1 0 0 1 346.9521 783.9932)" class="st5 st3">waterSurface(helper)</text>
		</g>
	</g>
	<path pointer-events="none" class="st0" d="M80.5,918.7v-22.7h244.2v22.7"/>
	<path pointer-events="none" class="st1" d="M80.5,918.7V1367h244.2V918.7"/>
	<path pointer-events="none" class="st1" d="M80.5,918.7h244.2"/>
	<g pointer-events="none">
		<text transform="matrix(1 0 0 1 166.7012 911.3193)" class="st2 st3">ParameterBox</text>
	</g>
	<g>
		<defs>
			<rect id="SVGID_17_" x="84" y="923.1" width="237.2" height="221.5"/>
		</defs>
		<clipPath id="SVGID_18_">
			<use xlink:href="#SVGID_17_"  style="overflow:visible;"/>
		</clipPath>
		<g pointer-events="none" class="st14">
			<text transform="matrix(1 0 0 1 85.3237 933.9932)" class="st5 st3">x</text>
			<text transform="matrix(1 0 0 1 85.3237 946.2031)" class="st5 st3">y</text>
			<text transform="matrix(1 0 0 1 85.3237 958.4121)" class="st5 st3">width</text>
			<text transform="matrix(1 0 0 1 85.3237 970.6211)" class="st5 st3">height</text>
			<text transform="matrix(1 0 0 1 85.3237 982.8311)" class="st5 st3">visualize</text>
			<text transform="matrix(1 0 0 1 85.3237 995.04)" class="st5 st3">chosenIndex</text>
			<text transform="matrix(1 0 0 1 85.3237 1007.249)" class="st5 st3">clickedPortControl</text>
			<text transform="matrix(1 0 0 1 85.3237 1019.459)" class="st5 st3">clickedFishingQuote</text>
			<text transform="matrix(1 0 0 1 85.3237 1031.668)" class="st5 st3">clickedSubsidies</text>
			<text transform="matrix(1 0 0 1 85.3237 1043.877)" class="st5 st3">clickedAntiBait</text>
			<text transform="matrix(1 0 0 1 85.3237 1056.0869)" class="st5 st3">clickedNets</text>
			<text transform="matrix(1 0 0 1 85.3237 1068.2959)" class="st5 st3">clickedPeriod</text>
			<text transform="matrix(1 0 0 1 85.3237 1080.5059)" class="st5 st3">clickedProtectionZone</text>
			<text transform="matrix(1 0 0 1 85.3237 1104.9238)" class="st5 st3">periodUP</text>
			<text transform="matrix(1 0 0 1 85.3237 1117.1338)" class="st5 st3">periodDOWN</text>
		</g>
	</g>
	<path pointer-events="none" class="st1" d="M80.5,1143.7h244.2"/>
	<g>
		<defs>
			<rect id="SVGID_19_" x="84" y="1151.6" width="237.2" height="219.8"/>
		</defs>
		<clipPath id="SVGID_20_">
			<use xlink:href="#SVGID_19_"  style="overflow:visible;"/>
		</clipPath>
		<g pointer-events="none" class="st15">
			<text transform="matrix(1 0 0 1 85.3237 1162.4824)" class="st5 st3">ParameterBox(x,y,width,height,visualize)</text>
			<text transform="matrix(1 0 0 1 85.3237 1174.6914)" class="st5 st3">background(clickedObject,shownScreen,helper)</text>
			<text transform="matrix(1 0 0 1 85.3237 1186.9014)" class="st5 st3">chooseParameter(clickedObject)</text>
			<text transform="matrix(1 0 0 1 85.3237 1199.1104)" class="st5 st3">portControl(helper)</text>
			<text transform="matrix(1 0 0 1 85.3237 1211.3193)" class="st5 st3">period(helper)</text>
			<text transform="matrix(1 0 0 1 85.3237 1223.5293)" class="st5 st3">fishingQutoes(helper)</text>
			<text transform="matrix(1 0 0 1 85.3237 1235.7383)" class="st5 st3">subsidies(helper)</text>
			<text transform="matrix(1 0 0 1 85.3237 1247.9473)" class="st5 st3">protectionZone(helper)</text>
			<text transform="matrix(1 0 0 1 85.3237 1260.1572)" class="st5 st3">nets(helper)</text>
			<text transform="matrix(1 0 0 1 85.3237 1272.3662)" class="st5 st3">antiBait(helper)</text>
			<text transform="matrix(1 0 0 1 85.3237 1284.5762)" class="st5 st3">interactionarea(ClickedObject)</text>
			<text transform="matrix(1 0 0 1 85.3237 1296.7852)" class="st5 st3">portControlClicked</text>
			<text transform="matrix(1 0 0 1 85.3237 1308.9941)" class="st5 st3">fishingQutoteClicked()</text>
			<text transform="matrix(1 0 0 1 85.3237 1321.2041)" class="st5 st3">subsidiesClicked()</text>
			<text transform="matrix(1 0 0 1 85.3237 1333.4131)" class="st5 st3">antiBaitClicked()</text>
			<text transform="matrix(1 0 0 1 85.3237 1345.6221)" class="st5 st3">netsClicked()</text>
		</g>
	</g>
	<path pointer-events="none" class="st0" d="M568.9,918.7v-22.7h209.3v22.7"/>
	<path pointer-events="none" class="st1" d="M568.9,918.7v265.1h209.3V918.7"/>
	<path pointer-events="none" class="st1" d="M568.9,918.7h209.3"/>
	<g pointer-events="none">
		<text transform="matrix(1 0 0 1 626.8735 911.3193)" class="st2 st3">ParameterNetwork</text>
	</g>
	<g>
		<defs>
			<rect id="SVGID_21_" x="572.4" y="923.1" width="202.3" height="204.1"/>
		</defs>
		<clipPath id="SVGID_22_">
			<use xlink:href="#SVGID_21_"  style="overflow:visible;"/>
		</clipPath>
		<g pointer-events="none" class="st16">
			<text transform="matrix(1 0 0 1 573.6968 933.9932)" class="st5 st3">subsidies</text>
			<text transform="matrix(1 0 0 1 573.6968 946.2031)" class="st5 st3">nets</text>
			<text transform="matrix(1 0 0 1 573.6968 958.4121)" class="st5 st3">fishingQuote</text>
			<text transform="matrix(1 0 0 1 573.6968 970.6211)" class="st5 st3">period</text>
			<text transform="matrix(1 0 0 1 573.6968 982.8311)" class="st5 st3">protectionZone</text>
			<text transform="matrix(1 0 0 1 573.6968 995.04)" class="st5 st3">portControl</text>
			<text transform="matrix(1 0 0 1 573.6968 1007.249)" class="st5 st3">antiBait</text>
			<text transform="matrix(1 0 0 1 573.6968 1019.459)" class="st5 st3">sustainableMethods</text>
			<text transform="matrix(1 0 0 1 573.6968 1031.668)" class="st5 st3">trawling</text>
			<text transform="matrix(1 0 0 1 573.6968 1043.877)" class="st5 st3">ghostNets</text>
			<text transform="matrix(1 0 0 1 573.6968 1056.0869)" class="st5 st3">bycatch</text>
			<text transform="matrix(1 0 0 1 573.6968 1068.2959)" class="st5 st3">plastic</text>
			<text transform="matrix(1 0 0 1 573.6968 1080.5059)" class="st5 st3">co2</text>
			<text transform="matrix(1 0 0 1 573.6968 1092.7148)" class="st5 st3">extraInput</text>
			<text transform="matrix(1 0 0 1 573.6968 1104.9238)" class="st5 st3">divideFactor</text>
		</g>
	</g>
	<path pointer-events="none" class="st1" d="M568.9,1126.3h209.3"/>
	<g>
		<defs>
			<rect id="SVGID_23_" x="572.4" y="1134.1" width="202.3" height="54.1"/>
		</defs>
		<clipPath id="SVGID_24_">
			<use xlink:href="#SVGID_23_"  style="overflow:visible;"/>
		</clipPath>
		<g pointer-events="none" class="st17">
			<text transform="matrix(1 0 0 1 573.6968 1145.041)" class="st5 st3">ParameterNetwork()</text>
			<text transform="matrix(1 0 0 1 573.6968 1157.25)" class="st5 st3">inputToOutput()</text>
			<text transform="matrix(1 0 0 1 573.6968 1169.459)" class="st5 st3">calculateScore()</text>
		</g>
	</g>
	<path pointer-events="none" class="st0" d="M603.8,395.5v-22.7h209.3v22.7"/>
	<path pointer-events="none" class="st1" d="M603.8,395.5v116.9h209.3V395.5"/>
	<path pointer-events="none" class="st1" d="M603.8,395.5h209.3"/>
	<g pointer-events="none">
		<text transform="matrix(1 0 0 1 689.1011 388.0615)" class="st2 st3">Entities</text>
	</g>
	<g>
		<defs>
			<rect id="SVGID_25_" x="607.3" y="399.8" width="202.3" height="82"/>
		</defs>
		<clipPath id="SVGID_26_">
			<use xlink:href="#SVGID_25_"  style="overflow:visible;"/>
		</clipPath>
		<g pointer-events="none" class="st18">
			<text transform="matrix(1 0 0 1 608.5806 410.7363)" class="st5 st3">x</text>
			<text transform="matrix(1 0 0 1 608.5806 422.9453)" class="st5 st3">y</text>
			<text transform="matrix(1 0 0 1 608.5806 435.1548)" class="st5 st3">width</text>
			<text transform="matrix(1 0 0 1 608.5806 447.3643)" class="st5 st3">height</text>
		</g>
	</g>
	<path pointer-events="none" class="st1" d="M603.8,480.9h209.3"/>
	<g>
		<defs>
			<rect id="SVGID_27_" x="607.3" y="488.8" width="202.3" height="27.9"/>
		</defs>
		<clipPath id="SVGID_28_">
			<use xlink:href="#SVGID_27_"  style="overflow:visible;"/>
		</clipPath>
		<g pointer-events="none" class="st19">
			<text transform="matrix(1 0 0 1 608.5806 499.6899)" class="st5 st3">Entities(x,y,width,height)</text>
		</g>
	</g>
	<path pointer-events="none" class="st0" d="M917.7,116.4V93.7h104.7v22.7"/>
	<path pointer-events="none" class="st1" d="M917.7,116.4v134.3h104.7V116.4"/>
	<path pointer-events="none" class="st1" d="M917.7,116.4h104.7"/>
	<g pointer-events="none">
		<text transform="matrix(1 0 0 1 958.8716 108.9912)" class="st2 st3">Fish</text>
	</g>
	<g>
		<defs>
			<rect id="SVGID_29_" x="921.2" y="120.8" width="97.7" height="82"/>
		</defs>
		<clipPath id="SVGID_30_">
			<use xlink:href="#SVGID_29_"  style="overflow:visible;"/>
		</clipPath>
		<g pointer-events="none" class="st20">
			<text transform="matrix(1 0 0 1 922.5356 131.6655)" class="st5 st3">size</text>
			<text transform="matrix(1 0 0 1 922.5356 143.875)" class="st5 st3">xMin</text>
			<text transform="matrix(1 0 0 1 922.5356 156.0845)" class="st5 st3">xWidth</text>
			<text transform="matrix(1 0 0 1 922.5356 168.2935)" class="st5 st3">direction</text>
			<text transform="matrix(1 0 0 1 922.5356 180.5029)" class="st5 st3">type</text>
		</g>
	</g>
	<path pointer-events="none" class="st1" d="M917.7,201.9h104.7"/>
	<g>
		<defs>
			<rect id="SVGID_31_" x="921.2" y="209.7" width="97.7" height="45.3"/>
		</defs>
		<clipPath id="SVGID_32_">
			<use xlink:href="#SVGID_31_"  style="overflow:visible;"/>
		</clipPath>
		<g pointer-events="none" class="st21">
			<text transform="matrix(1 0 0 1 922.5356 220.6191)" class="st5 st3">render()</text>
			<text transform="matrix(1 0 0 1 922.5356 232.8286)" class="st5 st3">move()</text>
		</g>
	</g>
	<path pointer-events="none" class="st0" d="M917.7,500.1v-22.7h104.7v22.7"/>
	<path pointer-events="none" class="st1" d="M917.7,500.1v108.1h104.7V500.1"/>
	<path pointer-events="none" class="st1" d="M917.7,500.1h104.7"/>
	<g pointer-events="none">
		<text transform="matrix(1 0 0 1 956.2534 492.7129)" class="st2 st3">Coral</text>
	</g>
	<g>
		<defs>
			<rect id="SVGID_33_" x="921.2" y="504.5" width="97.7" height="55.8"/>
		</defs>
		<clipPath id="SVGID_34_">
			<use xlink:href="#SVGID_33_"  style="overflow:visible;"/>
		</clipPath>
		<g pointer-events="none" class="st22">
			<text transform="matrix(1 0 0 1 922.5356 515.3877)" class="st5 st3">size</text>
			<text transform="matrix(1 0 0 1 922.5356 527.5972)" class="st5 st3">stage</text>
			<text transform="matrix(1 0 0 1 922.5356 539.8062)" class="st5 st3">type</text>
		</g>
	</g>
	<path pointer-events="none" class="st1" d="M917.7,559.4h104.7"/>
	<g>
		<defs>
			<rect id="SVGID_35_" x="921.2" y="567.3" width="97.7" height="45.3"/>
		</defs>
		<clipPath id="SVGID_36_">
			<use xlink:href="#SVGID_35_"  style="overflow:visible;"/>
		</clipPath>
		<g pointer-events="none" class="st23">
			<text transform="matrix(1 0 0 1 922.5356 578.1787)" class="st5 st3">render(assets)</text>
			<text transform="matrix(1 0 0 1 922.5356 590.3877)" class="st5 st3">changeColor(stage)</text>
		</g>
	</g>
	<path pointer-events="none" class="st0" d="M917.7,648.4v-22.7h104.7v22.7"/>
	<path pointer-events="none" class="st1" d="M917.7,648.4v143h104.7v-143"/>
	<path pointer-events="none" class="st1" d="M917.7,648.4h104.7"/>
	<g pointer-events="none">
		<text transform="matrix(1 0 0 1 952.7583 640.9697)" class="st2 st3">Plastic</text>
	</g>
	<g>
		<defs>
			<rect id="SVGID_37_" x="921.2" y="652.7" width="97.7" height="82"/>
		</defs>
		<clipPath id="SVGID_38_">
			<use xlink:href="#SVGID_37_"  style="overflow:visible;"/>
		</clipPath>
		<g pointer-events="none" class="st24">
			<text transform="matrix(1 0 0 1 922.5356 663.6436)" class="st5 st3">size</text>
			<text transform="matrix(1 0 0 1 922.5356 675.8535)" class="st5 st3">stage</text>
			<text transform="matrix(1 0 0 1 922.5356 688.0625)" class="st5 st3">xMin</text>
			<text transform="matrix(1 0 0 1 922.5356 700.2715)" class="st5 st3">xWidth</text>
			<text transform="matrix(1 0 0 1 922.5356 712.4814)" class="st5 st3">direction</text>
		</g>
	</g>
	<path pointer-events="none" class="st1" d="M917.7,733.8h104.7"/>
	<g>
		<defs>
			<rect id="SVGID_39_" x="921.2" y="741.7" width="97.7" height="54.1"/>
		</defs>
		<clipPath id="SVGID_40_">
			<use xlink:href="#SVGID_39_"  style="overflow:visible;"/>
		</clipPath>
		<g pointer-events="none" class="st25">
			<text transform="matrix(1 0 0 1 922.5356 752.5977)" class="st5 st3">render(assets)</text>
			<text transform="matrix(1 0 0 1 922.5356 764.8066)" class="st5 st3">changeStage(stage)</text>
			<text transform="matrix(1 0 0 1 922.5356 777.0166)" class="st5 st3">float()</text>
		</g>
	</g>
	<path pointer-events="none" class="st0" d="M917.7,308.3v-22.7h104.7v22.7"/>
	<path pointer-events="none" class="st1" d="M917.7,308.3v143h104.7v-143"/>
	<path pointer-events="none" class="st1" d="M917.7,308.3h104.7"/>
	<g pointer-events="none">
		<text transform="matrix(1 0 0 1 949.27 300.8521)" class="st2 st3">Bycatch</text>
	</g>
	<g>
		<defs>
			<rect id="SVGID_41_" x="921.2" y="312.6" width="97.7" height="82"/>
		</defs>
		<clipPath id="SVGID_42_">
			<use xlink:href="#SVGID_41_"  style="overflow:visible;"/>
		</clipPath>
		<g pointer-events="none" class="st26">
			<text transform="matrix(1 0 0 1 922.5356 323.5269)" class="st5 st3">size</text>
			<text transform="matrix(1 0 0 1 922.5356 335.7358)" class="st5 st3">xMin</text>
			<text transform="matrix(1 0 0 1 922.5356 347.9453)" class="st5 st3">xWidth</text>
			<text transform="matrix(1 0 0 1 922.5356 360.1548)" class="st5 st3">direction</text>
		</g>
	</g>
	<path pointer-events="none" class="st1" d="M917.7,393.7h104.7"/>
	<g>
		<defs>
			<rect id="SVGID_43_" x="921.2" y="401.6" width="97.7" height="54.1"/>
		</defs>
		<clipPath id="SVGID_44_">
			<use xlink:href="#SVGID_43_"  style="overflow:visible;"/>
		</clipPath>
		<g pointer-events="none" class="st27">
			<text transform="matrix(1 0 0 1 922.5356 412.4805)" class="st5 st3">render()</text>
			<text transform="matrix(1 0 0 1 922.5356 424.6895)" class="st5 st3">float()</text>
		</g>
	</g>
	<path pointer-events="none" class="st1" d="M917.7,157.4h-43.6c-5.8,0-8.7,2.9-8.7,8.7v261.6c0,5.8-2.9,8.7-8.7,8.7h-27.8"/>
	<path pointer-events="none" class="st1" d="M814.1,436.5l14.8-7.4v14.8L814.1,436.5z"/>
	<g transform="translate(-0.5 -0.5)">
		<text transform="matrix(1 0 0 1 848.146 299.6079)" class="st5 st28">Extends</text>
	</g>
	<path pointer-events="none" class="st1" d="M917.7,689.4h-43.6c-5.8,0-8.7-2.9-8.7-8.7V445.2c0-5.8-2.9-8.7-8.7-8.7h-27.8"/>
	<path pointer-events="none" class="st1" d="M814.1,436.5l14.8-7.4v14.8L814.1,436.5z"/>
	<g transform="translate(-0.5 -0.5)">
		<text transform="matrix(1 0 0 1 848.146 565.5972)" class="st5 st28">Extends</text>
	</g>
	<path pointer-events="none" class="st1" d="M917.7,349.3h-43.6c-5.8,0-8.7,2.9-8.7,8.7v69.8c0,5.8-2.9,8.7-8.7,8.7h-27.8"/>
	<path pointer-events="none" class="st1" d="M814.1,436.5l14.8-7.4v14.8L814.1,436.5z"/>
	<g transform="translate(-0.5 -0.5)">
		<text transform="matrix(1 0 0 1 848.146 395.5386)" class="st5 st28">Extends</text>
	</g>
	<path pointer-events="none" class="st1" d="M917.7,528h-43.6c-5.8,0-8.7-2.9-8.7-8.7v-74.1c0-5.8-2.9-8.7-8.7-8.7h-27.8"/>
	<path pointer-events="none" class="st1" d="M814.1,436.5l14.8-7.4v14.8L814.1,436.5z"/>
	<g transform="translate(-0.5 -0.5)">
		<text transform="matrix(1 0 0 1 848.146 484.4922)" class="st5 st28">Extends</text>
	</g>
	<path pointer-events="none" class="st1" d="M185.2,547.2l1.5-100.4"/>
	<path pointer-events="none" class="st11" d="M187,425.1l6.2,11l-6.6,10.8l-6.3-11L187,425.1z"/>
	<path pointer-events="none" class="st1" d="M357,198.4l-79.4-1.3"/>
	<path pointer-events="none" class="st11" d="M255.8,196.7l11-6.2l10.8,6.6l-11,6.2L255.8,196.7z"/>
	<path pointer-events="none" class="st1" d="M706.3,365l0.4-123c0-5.8-2.9-8.7-8.7-8.7H565.4"/>
	<path pointer-events="none" class="st11" d="M543.6,233.3l10.9-6.4l10.9,6.4l-10.9,6.4L543.6,233.3z"/>
	<path pointer-events="none" class="st1" d="M202.6,896.1l153.8-69.2"/>
	<path pointer-events="none" class="st11" d="M376.3,817.9l-7.3,10.3l-12.6-1.4l7.3-10.3L376.3,817.9z"/>
	<path pointer-events="none" class="st1" d="M673.6,896.1l-162.3-69.6"/>
	<path pointer-events="none" class="st11" d="M491.2,817.9l12.5-1.6l7.5,10.2l-12.5,1.6L491.2,817.9z"/>
</g>
</svg>
